# xmcd
#
# Track frame offsets:
# 200
# 13027
# 33410
# 54415
# 80417
# 96412
# 124412
# 149255
#
# Disc length: 2296 seconds
#
#
# Revision: 0
# Processed by: cddbd v1.4PL0 Copyright (c) Steve Scherf et al.
# Submitted via: FreeRIP 2.30 
#
DISCID=6908f608
DTITLE=Professor Strut (with Karen Carroll) - Professor's Blues Revu
DYEAR=1900
DGENRE=Blues
TTITLE0=Come on Down to the Blues Bar
TTITLE1=I Wanna Be with You
TTITLE2=Professor Strut
TTITLE3=You're Leaving Me
TTITLE4=Everything Is You
TTITLE5=They Call It Stormy Monday
TTITLE6=Jealous Kind of Woman
TTITLE7=This Little Light of Mine
EXTD=Delmark
EXTT0=
EXTT1=
EXTT2=
EXTT3=
EXTT4=
EXTT5=
EXTT6=
EXTT7=
PLAYORDER=
